HIERARCHY
ROOT pelvis
{
  OFFSET 0 100 0
  CHANNELS 6 Xposition Yposition Zposition Zrotation Xrotation Yrotation
  JOINT pelvis_right_femur
  {
    OFFSET -10.78128 -3.44521 -0.5502486
    CHANNELS 3 Zrotation Xrotation Yrotation
    JOINT right_femur_tibia
    {
      OFFSET -0.8047443 -44.0398 -0.1307829
      CHANNELS 3 Zrotation Xrotation Yrotation
      JOINT right_tibia_foot
      {
        OFFSET 3.006224 -47.83518 -5
        CHANNELS 3 Zrotation Xrotation Yrotation
        End Site
        {
          OFFSET 0 -5 15
        }
      }
    }
  }
  JOINT pelvis_left_femur
  {
    OFFSET 10.78128 -3.44521 -0.5502486
    CHANNELS 3 Zrotation Xrotation Yrotation
    JOINT left_femur_tibia
    {
      OFFSET 0.8047443 -44.0398 -0.1307829
      CHANNELS 3 Zrotation Xrotation Yrotation
      JOINT left_tibia_foot
      {
        OFFSET -4.370144 -48.10324 -4.275266
        CHANNELS 3 Zrotation Xrotation Yrotation
        End Site
        {
          OFFSET 0 -5 15
        }
      }
    }
  }
  JOINT pelvis_spine1
  {
    OFFSET 0 6.468898 -3.129235
    CHANNELS 3 Zrotation Xrotation Yrotation
    JOINT spine1
    {
      OFFSET 0 23.15396 4.99043
      CHANNELS 3 Zrotation Xrotation Yrotation
      JOINT spine2
      {
        OFFSET 0 20.79997 -5.064912
        CHANNELS 3 Zrotation Xrotation Yrotation
        JOINT neck
        {
          OFFSET 0 14.38658 9.616178
          CHANNELS 3 Zrotation Xrotation Yrotation
          End Site
          {
            OFFSET 0 20 0
          }
        }
      }
      JOINT right_manubrium
      {
        OFFSET -5.722621 16.35077 3.967754
        CHANNELS 3 Zrotation Xrotation Yrotation
        JOINT right_clavicle
        {
          OFFSET -13.16364 1.694482 -4.693211
          CHANNELS 3 Zrotation Xrotation Yrotation
          JOINT right_humerus
          {
            OFFSET -28.5034 -0.3100689 -2.792744
            CHANNELS 3 Zrotation Xrotation Yrotation
            JOINT right_radius
            {
              OFFSET -25.15693 0.02248979 -1.271978
              CHANNELS 3 Zrotation Xrotation Yrotation
              End Site
              {
                OFFSET -15 0 0
              }
            }
          }
        }
      }
      JOINT left_manubrium
      {
        OFFSET 5.722621 16.35077 3.967754
        CHANNELS 3 Zrotation Xrotation Yrotation
        JOINT left_clavicle
        {
          OFFSET 13.16364 1.694482 -4.693211
          CHANNELS 3 Zrotation Xrotation Yrotation
          JOINT left_humerus
          {
            OFFSET 29.39168 -1.063119 -2.237045
            CHANNELS 3 Zrotation Xrotation Yrotation
            JOINT left_radius
            {
              OFFSET 24.59957 -0.9528479 0.9047498
              CHANNELS 3 Zrotation Xrotation Yrotation
              End Site
              {
                OFFSET 15 -0 -0
              }
            }
          }
        }
      }
    }
  }
}
MOTION
Frames: 13
Frame Time: 0.0416666666667
0 103.5113 0 1.246255 -0.640468 0.1256484 2.851272 -16.85076 7.600427 -0 35.69234 -0 -5.256648 -15.84956 -3.118234 -7.165828 11.8411 -23.14987 -0 4.414502 -0 5.959496 -18.38177 25.01878 -2.48645 -3.823067 3.581155 3.435482 7.68966 -9.489295 1.028114 18.74666 9.130219 4.78569 -27.48056 10.46697 6.349696 -18.767 12.82913 83.67506 30.68096 -18.1421 -0 0 20.08961 -10.05672 10.00464 4.222765 10.35804 -22.21606 5.094309 -95.21594 19.57357 21.08917 0 0 -8.838855 11.09602 19.74908 -2.599965
0.1956124 103.4096 1.645089 0.4659997 0.1938438 0.130548 4.047966 -20.25784 8.406345 -0 35.83327 -0 -4.95584 -14.79401 -3.363432 -6.481815 11.78719 -23.03757 -0 4.760377 -0 4.188089 -19.76305 24.2117 -2.65594 -3.849513 3.391091 3.566729 7.363346 -9.625762 0.8708171 18.56111 9.51348 4.998029 -27.56715 10.49116 6.201421 -18.62592 12.93168 83.21255 30.65438 -17.67596 -0 0 20.15977 -10.84298 10.22083 4.845936 10.64874 -22.34092 5.568124 -94.59378 18.92049 20.18056 0 0 -9.177721 11.23626 19.42854 -3.180077
0.3933132 103.1717 3.562714 -0.1659604 1.286659 0.1211116 5.367489 -24.85383 8.509155 -0 32.93495 -0 -5.115206 -13.1538 -3.165775 -6.10928 11.87087 -22.23166 -0 4.849177 -0 5.229689 -20.69509 24.23783 -2.48769 -3.354001 2.810871 4.20068 7.232053 -9.968078 0.5961727 18.25908 9.826249 5.090309 -28.0302 10.421 5.676942 -17.64794 12.42464 84.15944 32.01535 -19.37983 -0 0 16.74174 -10.69612 10.71589 5.69447 10.6336 -22.78034 4.656874 -91.80243 18.29169 16.56436 0 0 -14.68486 12.34515 16.55688 -3.920716
0.5982089 102.7378 5.803144 -0.6850248 1.967608 0.1317157 6.337827 -28.6544 8.171712 -0 29.46734 -0 -5.571844 -11.29631 -2.996456 -5.779347 12.24306 -21.25719 -0 5.20443 -0 5.569722 -21.84223 23.73237 -2.203501 -2.941677 2.748553 4.365793 7.700966 -9.952761 0.6200428 18.43047 9.459611 4.840871 -27.99893 10.2395 5.614515 -17.21028 12.09625 85.41152 32.87782 -20.92951 -0 0 14.50062 -9.947739 10.81897 5.588227 10.06316 -22.86923 3.305035 -90.79481 18.74706 15.50255 0 0 -17.418 12.65671 15.09066 -3.439256
0.8106653 102.0874 8.489083 -1.041775 2.546792 0.2236336 6.954609 -31.96939 7.359258 -0 25.01465 -0 -6.161904 -9.120414 -2.682514 -5.606086 12.88947 -20.03962 -0 5.867276 -0 5.858412 -22.90876 22.87965 -1.984494 -2.527875 2.750356 4.427065 8.22879 -9.890491 0.6363697 18.67434 9.070718 4.597858 -27.7318 9.960504 5.586627 -16.81555 11.87299 86.58924 33.61437 -22.22754 -0 0 12.47794 -9.68284 10.98077 5.685647 9.413726 -22.93804 1.92961 -89.825 19.19926 14.58044 0 0 -19.75178 12.64499 13.69009 -2.696399
1.025468 101.2465 11.73157 -1.255724 3.01391 0.459259 7.17137 -34.44141 6.161387 -0 20.17012 -0 -6.780529 -6.728143 -2.278628 -5.532928 13.79229 -18.62757 -0 7.113014 -0 5.573775 -23.72839 21.40705 -1.828849 -2.221015 2.886895 4.361766 8.720576 -9.734456 0.6899229 18.97531 8.639421 4.356106 -27.38637 9.673803 5.636499 -16.63816 11.75521 87.3662 34.04655 -22.94024 -0 0 11.29263 -9.59404 11.05427 5.719792 8.781742 -22.8552 0.851285 -89.47368 19.7536 14.48889 0 0 -20.6998 12.36998 12.90234 -1.832337
1.233861 100.3173 15.63852 -1.401076 3.445212 0.88976 7.162003 -35.87911 4.878856 -0 15.64978 -0 -7.29017 -4.27048 -1.854568 -5.471842 14.839 -17.0781 -0 9.328648 -0 4.43828 -23.95234 19.19327 -1.735477 -1.977967 3.035885 4.259879 9.116841 -9.576468 0.7262617 19.23796 8.290284 4.174845 -27.01039 9.395756 5.670534 -16.52743 11.69455 87.8685 34.3265 -23.31538 -0 0 10.49795 -9.770163 11.14418 5.865674 8.258736 -22.76004 0.01835681 -89.22986 20.19029 14.50991 0 0 -21.23534 11.994 12.29539 -1.020599
1.425801 99.47272 20.27663 -1.60001 3.845054 1.518803 7.225915 -36.05757 3.938216 -0 12.40418 -0 -7.623147 -2.089147 -1.543428 -5.270726 15.7898 -15.487 -0 12.9581 -0 2.26201 -23.12939 16.26504 -1.674774 -1.796887 3.195596 4.142076 9.426593 -9.417793 0.7599899 19.46295 7.993155 4.033339 -26.66306 9.14462 5.699458 -16.48124 11.65963 88.14567 34.47891 -23.44688 -0 0 10.0406 -10.02104 11.21625 6.016294 7.836263 -22.64258 -0.5936539 -89.15284 20.56643 14.70212 0 0 -21.37304 11.58242 11.90437 -0.281039
1.595275 98.93362 25.62968 -1.981714 4.158009 2.270897 7.660535 -34.82068 3.729763 -0 11.30073 -0 -7.819715 -0.7269665 -1.474484 -4.772877 16.22622 -14.00214 -0 18.37611 -0 -0.7628526 -20.82933 12.99405 -1.636867 -1.652258 3.344112 4.024739 9.670471 -9.273371 0.7844604 19.64802 7.751116 3.928464 -26.33723 8.914946 5.713758 -16.45819 11.64067 88.2909 34.55493 -23.4491 -0 0 9.757947 -10.34266 11.2924 6.195207 7.496433 -22.5328 -1.061459 -89.11507 20.86429 14.90393 0 0 -21.3742 11.1646 11.60191 0.3868988
1.748826 98.90081 31.55679 -2.575904 4.244204 2.973206 8.476127 -32.12087 4.269127 -0 12.57172 -0 -8.072656 -0.7935254 -1.674372 -3.940556 15.57648 -12.78393 -0 25.67207 -0 -3.959177 -16.98344 10.09574 -1.610559 -1.534772 3.485048 3.910952 9.866153 -9.13872 0.8053305 19.8041 7.543519 3.84702 -26.0376 8.703781 5.719544 -16.45361 11.628 88.34198 34.57459 -23.36658 -0 0 9.603029 -10.68116 11.3641 6.37397 7.216515 -22.42535 -1.423656 -89.12281 21.11615 15.13001 0 0 -21.26556 10.75046 11.37845 1.001902
1.911393 99.46507 37.79096 -3.191795 3.919733 3.38935 9.247967 -28.08275 5.033216 -0 15.27243 -0 -8.626594 -2.537904 -2.001332 -3.001738 13.29792 -11.9068 -0 34.48016 -0 -6.400574 -12.23057 8.283902 -1.592316 -1.433552 3.618665 3.800649 10.02849 -9.011846 0.8225635 19.93869 7.362504 3.783049 -25.75387 8.505213 5.717006 -16.45913 11.61998 88.33043 34.55649 -23.22848 -0 0 9.528078 -11.03664 11.43546 6.558903 6.978362 -22.32242 -1.716257 -89.14678 21.32982 15.35308 0 0 -21.10765 10.3404 11.1954 1.579965
2.114031 100.5494 44.01572 -3.429668 3.048052 3.33787 9.363358 -23.01332 5.286289 -0 17.45332 -0 -9.483477 -5.342888 -2.219238 -2.406689 9.211522 -11.27202 -0 43.96424 -0 -7.42977 -7.80931 7.809372 -1.579055 -1.343401 3.749285 3.692093 10.16683 -8.88799 0.8381303 20.05902 7.198498 3.730732 -25.48162 8.315306 5.708075 -16.4746 11.61416 88.26853 34.51032 -23.04407 -0 0 9.51657 -11.39863 11.50413 6.745531 6.768656 -22.21981 -1.958496 -89.18755 21.51974 15.58157 0 0 -20.90918 9.932228 11.04404 2.135884
2.362925 101.9406 49.99402 -2.955173 1.643372 2.846407 8.554336 -17.29259 4.737135 -0 17.44523 -0 -10.21355 -7.848868 -2.154282 -2.43978 3.687995 -10.65482 -0 52.84974 -0 -7.074007 -4.833875 8.403548 -1.56998 -1.259916 3.879852 3.5831 10.28788 -8.763685 0.8523728 20.16996 7.046851 3.687025 -25.21428 8.130633 5.69289 -16.49967 11.61032 88.16405 34.44334 -22.81644 -0 0 9.556337 -11.77017 11.57065 6.93782 6.577977 -22.11561 -2.164752 -89.23805 21.69175 15.81354 0 0 -20.68434 9.522818 10.91076 2.680115
